<mxfile host="app.diagrams.net" modified="2020-04-20T19:12:04.333Z" agent="5.0 (Windows)" etag="ds9F4-RoLWKRrLVyqGWd" version="12.9.14" type="github">
  <diagram id="C5RBs43oDa-KdzZeNtuy" name="Page-1">
    <mxGraphModel dx="1920" dy="3704" grid="1" gridSize="10" guides="1" tooltips="1" connect="1" arrows="1" fold="1" page="1" pageScale="1" pageWidth="827" pageHeight="1169" math="0" shadow="0">
      <root>
        <mxCell id="WIyWlLk6GJQsqaUBKTNV-0" />
        <mxCell id="WIyWlLk6GJQsqaUBKTNV-1" parent="WIyWlLk6GJQsqaUBKTNV-0" />
        <mxCell id="LcRW81NQQqgkX1LeB4Ay-17" value="" style="group;html=1;" parent="WIyWlLk6GJQsqaUBKTNV-1" vertex="1" connectable="0">
          <mxGeometry x="1399" y="-832" width="1750" height="1920" as="geometry" />
        </mxCell>
        <mxCell id="-60NsE4o0A_aWf5wCk37-1" value="" style="shape=folder;fontStyle=1;spacingTop=10;tabWidth=65;tabHeight=21;tabPosition=left;html=1;" parent="LcRW81NQQqgkX1LeB4Ay-17" vertex="1">
          <mxGeometry y="-750" width="1750" height="2670" as="geometry" />
        </mxCell>
        <mxCell id="LcRW81NQQqgkX1LeB4Ay-57" value="" style="group" parent="LcRW81NQQqgkX1LeB4Ay-17" vertex="1" connectable="0">
          <mxGeometry x="460" y="210" width="940" height="1070" as="geometry" />
        </mxCell>
        <mxCell id="LcRW81NQQqgkX1LeB4Ay-50" value="" style="shape=folder;fontStyle=1;spacingTop=10;tabWidth=86;tabHeight=19;tabPosition=left;html=1;" parent="LcRW81NQQqgkX1LeB4Ay-57" vertex="1">
          <mxGeometry y="-300" width="940" height="1370" as="geometry" />
        </mxCell>
        <mxCell id="LcRW81NQQqgkX1LeB4Ay-41" value="&lt;p style=&quot;margin: 0px ; margin-top: 4px ; text-align: center&quot;&gt;&lt;i&gt;{abstract}&lt;/i&gt;&lt;br&gt;&lt;i&gt;&lt;b&gt;BaseHandler&lt;/b&gt;&lt;/i&gt;&lt;br&gt;&lt;/p&gt;&lt;hr size=&quot;1&quot;&gt;&lt;p style=&quot;margin: 0px ; margin-left: 4px&quot;&gt;~ next: RuleHandler&lt;br&gt;&lt;/p&gt;&lt;hr size=&quot;1&quot;&gt;&lt;p style=&quot;margin: 0px ; margin-left: 4px&quot;&gt;+ setNext(RuleHandler): void&lt;/p&gt;&lt;p style=&quot;margin: 0px ; margin-left: 4px&quot;&gt;+ handleValidationRequest(...)&lt;br&gt;&lt;/p&gt;" style="verticalAlign=top;align=left;overflow=fill;fontSize=12;fontFamily=Helvetica;html=1;" parent="LcRW81NQQqgkX1LeB4Ay-57" vertex="1">
          <mxGeometry x="671" y="283" width="190" height="138" as="geometry" />
        </mxCell>
        <mxCell id="LcRW81NQQqgkX1LeB4Ay-59" style="endArrow=none;dashed=1;html=1;fontFamily=Helvetica;fontSize=11;fontColor=#000000;align=center;strokeColor=#000000;edgeStyle=orthogonalEdgeStyle;exitX=0;exitY=0;exitDx=189;exitDy=38.5;exitPerimeter=0;entryX=0;entryY=0.75;entryDx=0;entryDy=0;" parent="LcRW81NQQqgkX1LeB4Ay-57" source="LcRW81NQQqgkX1LeB4Ay-58" target="LcRW81NQQqgkX1LeB4Ay-41" edge="1">
          <mxGeometry relative="1" as="geometry">
            <Array as="points">
              <mxPoint x="600" y="387" />
              <mxPoint x="599" y="387" />
            </Array>
          </mxGeometry>
        </mxCell>
        <mxCell id="LcRW81NQQqgkX1LeB4Ay-58" value="&lt;div&gt;handleValidationRequest() {&lt;br&gt;&lt;/div&gt;&lt;div&gt;&amp;nbsp;&amp;nbsp; next.handleValidationRequest();&lt;/div&gt;&lt;div&gt;}&lt;br&gt;// Same for generate() [?]&lt;br&gt;&lt;/div&gt;" style="shape=note;whiteSpace=wrap;html=1;size=14;verticalAlign=top;align=left;spacingTop=-6;" parent="LcRW81NQQqgkX1LeB4Ay-57" vertex="1">
          <mxGeometry x="411" y="342" width="189" height="63" as="geometry" />
        </mxCell>
        <mxCell id="F0vZ-oMPGt8kP6uusFCu-18" style="edgeStyle=orthogonalEdgeStyle;rounded=1;orthogonalLoop=1;jettySize=auto;html=1;entryX=0;entryY=0.25;entryDx=0;entryDy=0;verticalAlign=bottom;endArrow=open;endSize=12;startFill=0;startArrow=diamondThin;startSize=16;exitX=1;exitY=0.25;exitDx=0;exitDy=0;" parent="LcRW81NQQqgkX1LeB4Ay-57" source="F0vZ-oMPGt8kP6uusFCu-25" target="F0vZ-oMPGt8kP6uusFCu-17" edge="1">
          <mxGeometry relative="1" as="geometry" />
        </mxCell>
        <mxCell id="LcRW81NQQqgkX1LeB4Ay-18" value="&lt;p style=&quot;margin: 0px ; margin-top: 4px ; text-align: center&quot;&gt;&lt;i&gt;&amp;lt;&amp;lt;Interface&amp;gt;&amp;gt;&lt;/i&gt;&lt;br&gt;&lt;b&gt;RequestHandler&lt;/b&gt;&lt;/p&gt;&lt;hr size=&quot;1&quot;&gt;&lt;hr size=&quot;1&quot;&gt;&lt;p style=&quot;margin: 0px ; margin-left: 4px&quot;&gt;+ getValidSpaces(Space current, List&amp;lt;Space&amp;gt;&lt;br&gt;&amp;nbsp;&amp;nbsp;&amp;nbsp;&amp;nbsp;&amp;nbsp;&amp;nbsp;&amp;nbsp; allSpaces, List&amp;lt;Space&amp;gt; movableSpaces,&lt;br&gt;&amp;nbsp;&amp;nbsp;&amp;nbsp;&amp;nbsp;&amp;nbsp;&amp;nbsp;&amp;nbsp; Map&amp;lt;Level, List&amp;lt;Space&amp;gt;&amp;gt; buildableSpaces,&lt;/p&gt;&lt;p style=&quot;margin: 0px ; margin-left: 4px&quot;&gt;&amp;nbsp;&amp;nbsp;&amp;nbsp;&amp;nbsp;&amp;nbsp;&amp;nbsp;&amp;nbsp; Map&amp;lt;Space, Space&amp;gt; forces): void&lt;br&gt;+ generate(Space before, Space after, List&amp;lt;Rule&amp;gt;&lt;br&gt;&amp;nbsp; &amp;nbsp; &amp;nbsp;&amp;nbsp;&amp;nbsp; newRulesOnMe, List&amp;lt;Rule&amp;gt; newRulesOn-&lt;br&gt;&amp;nbsp;&amp;nbsp;&amp;nbsp;&amp;nbsp;&amp;nbsp;&amp;nbsp;&amp;nbsp; Opponents): void&lt;/p&gt;&lt;div&gt;&lt;br&gt;&lt;br&gt;&lt;/div&gt;" style="verticalAlign=top;align=left;overflow=fill;fontSize=12;fontFamily=Helvetica;html=1;" parent="LcRW81NQQqgkX1LeB4Ay-57" vertex="1">
          <mxGeometry x="61" y="82" width="334" height="160" as="geometry" />
        </mxCell>
        <mxCell id="LcRW81NQQqgkX1LeB4Ay-42" style="endArrow=block;dashed=1;endFill=0;endSize=12;html=1;fontFamily=Helvetica;fontSize=11;fontColor=#000000;align=center;strokeColor=#000000;edgeStyle=orthogonalEdgeStyle;exitX=0.5;exitY=0;exitDx=0;exitDy=0;" parent="LcRW81NQQqgkX1LeB4Ay-57" source="LcRW81NQQqgkX1LeB4Ay-41" target="F0vZ-oMPGt8kP6uusFCu-17" edge="1">
          <mxGeometry relative="1" as="geometry">
            <mxPoint x="437" y="362" as="sourcePoint" />
            <mxPoint x="325" y="312" as="targetPoint" />
          </mxGeometry>
        </mxCell>
        <mxCell id="F0vZ-oMPGt8kP6uusFCu-17" value="&lt;p style=&quot;margin: 0px ; margin-top: 4px ; text-align: center&quot;&gt;&lt;i&gt;&amp;lt;&amp;lt;Interface&amp;gt;&amp;gt;&lt;/i&gt;&lt;br&gt;&lt;b&gt;RuleHandler&lt;/b&gt;&lt;/p&gt;&lt;p style=&quot;margin: 0px ; margin-top: 4px ; text-align: center&quot;&gt;&lt;i&gt;{package-visible}&lt;/i&gt;&lt;/p&gt;&lt;hr size=&quot;1&quot;&gt;&lt;hr size=&quot;1&quot;&gt;&lt;p style=&quot;margin: 0px ; margin-left: 4px&quot;&gt;+ handleValidationRequest(ValidationContainer): void&lt;/p&gt;&lt;div&gt;&lt;br&gt;&lt;br&gt;&lt;/div&gt;" style="verticalAlign=top;align=left;overflow=fill;fontSize=12;fontFamily=Helvetica;html=1;" parent="LcRW81NQQqgkX1LeB4Ay-57" vertex="1">
          <mxGeometry x="582" y="42" width="309" height="120" as="geometry" />
        </mxCell>
        <mxCell id="F0vZ-oMPGt8kP6uusFCu-24" style="edgeStyle=none;rounded=1;orthogonalLoop=1;jettySize=auto;html=1;entryX=0.5;entryY=1;entryDx=0;entryDy=0;endSize=12;dashed=1;endFill=0;endArrow=block;exitX=0.5;exitY=0;exitDx=0;exitDy=0;" parent="LcRW81NQQqgkX1LeB4Ay-57" source="F0vZ-oMPGt8kP6uusFCu-25" target="LcRW81NQQqgkX1LeB4Ay-18" edge="1">
          <mxGeometry relative="1" as="geometry">
            <mxPoint x="228" y="282" as="sourcePoint" />
          </mxGeometry>
        </mxCell>
        <mxCell id="F0vZ-oMPGt8kP6uusFCu-25" value="&lt;p style=&quot;margin: 0px ; margin-top: 4px ; text-align: center&quot;&gt;&lt;b&gt;HandlerAdapter&lt;/b&gt;&lt;/p&gt;&lt;p style=&quot;margin: 0px ; margin-top: 4px ; text-align: center&quot;&gt;&lt;i&gt;{package-visible}&lt;/i&gt;&lt;/p&gt;&lt;hr size=&quot;1&quot;&gt;&lt;hr size=&quot;1&quot;&gt;&lt;p style=&quot;margin: 0px ; margin-left: 4px&quot;&gt;+ getValidSpaces(...)&lt;br&gt;&lt;/p&gt;&lt;div&gt;&lt;br&gt;&lt;br&gt;&lt;/div&gt;" style="verticalAlign=top;align=left;overflow=fill;fontSize=12;fontFamily=Helvetica;html=1;" parent="LcRW81NQQqgkX1LeB4Ay-57" vertex="1">
          <mxGeometry x="73.5" y="292" width="309" height="120" as="geometry" />
        </mxCell>
        <mxCell id="LcRW81NQQqgkX1LeB4Ay-0" value="&lt;b&gt;ConcreteHandler&lt;/b&gt;&lt;br&gt;&lt;i&gt;{package-visible}&lt;/i&gt;" style="swimlane;fontStyle=0;align=center;verticalAlign=top;childLayout=stackLayout;horizontal=1;startSize=41;horizontalStack=0;resizeParent=1;resizeParentMax=0;resizeLast=0;collapsible=1;marginBottom=0;html=1;" parent="LcRW81NQQqgkX1LeB4Ay-57" vertex="1">
          <mxGeometry x="622" y="502" width="277" height="178" as="geometry" />
        </mxCell>
        <mxCell id="LcRW81NQQqgkX1LeB4Ay-1" value="- rules: List&lt;Rule&gt;&#xa;" style="text;strokeColor=none;fillColor=none;align=left;verticalAlign=top;spacingLeft=4;spacingRight=4;overflow=hidden;rotatable=0;points=[[0,0.5],[1,0.5]];portConstraint=eastwest;" parent="LcRW81NQQqgkX1LeB4Ay-0" vertex="1">
          <mxGeometry y="41" width="277" height="29" as="geometry" />
        </mxCell>
        <mxCell id="LcRW81NQQqgkX1LeB4Ay-2" value="" style="line;strokeWidth=1;fillColor=none;align=left;verticalAlign=middle;spacingTop=-1;spacingLeft=3;spacingRight=3;rotatable=0;labelPosition=right;points=[];portConstraint=eastwest;" parent="LcRW81NQQqgkX1LeB4Ay-0" vertex="1">
          <mxGeometry y="70" width="277" height="8" as="geometry" />
        </mxCell>
        <mxCell id="LcRW81NQQqgkX1LeB4Ay-3" value="&lt;div&gt;+ ConcreteHandler(List&amp;lt;Rule&amp;gt;): &lt;i&gt;{constructor}&lt;/i&gt;&lt;br&gt;&lt;i&gt;+ &lt;/i&gt;ConcreteHandler(List&amp;lt;Rule&amp;gt;, RuleHandler):&lt;/div&gt;&lt;div&gt;&lt;i&gt;&lt;i&gt;&amp;nbsp;&amp;nbsp;&amp;nbsp;&amp;nbsp;&amp;nbsp;&amp;nbsp;&amp;nbsp; {constructor}&lt;/i&gt;&lt;/i&gt;&lt;/div&gt;+ handleValidationRequest(...)" style="text;strokeColor=none;fillColor=none;align=left;verticalAlign=top;spacingLeft=4;spacingRight=4;overflow=hidden;rotatable=0;points=[[0,0.5],[1,0.5]];portConstraint=eastwest;fontStyle=0;html=1;" parent="LcRW81NQQqgkX1LeB4Ay-0" vertex="1">
          <mxGeometry y="78" width="277" height="100" as="geometry" />
        </mxCell>
        <mxCell id="LcRW81NQQqgkX1LeB4Ay-4" value="Rule" style="swimlane;fontStyle=1;align=center;verticalAlign=top;childLayout=stackLayout;horizontal=1;startSize=26;horizontalStack=0;resizeParent=1;resizeParentMax=0;resizeLast=0;collapsible=1;marginBottom=0;" parent="LcRW81NQQqgkX1LeB4Ay-57" vertex="1">
          <mxGeometry x="681" y="782" width="210" height="170" as="geometry" />
        </mxCell>
        <mxCell id="LcRW81NQQqgkX1LeB4Ay-5" value="+ field: type" style="text;strokeColor=none;fillColor=none;align=left;verticalAlign=top;spacingLeft=4;spacingRight=4;overflow=hidden;rotatable=0;points=[[0,0.5],[1,0.5]];portConstraint=eastwest;" parent="LcRW81NQQqgkX1LeB4Ay-4" vertex="1">
          <mxGeometry y="26" width="210" height="26" as="geometry" />
        </mxCell>
        <mxCell id="LcRW81NQQqgkX1LeB4Ay-6" value="" style="line;strokeWidth=1;fillColor=none;align=left;verticalAlign=middle;spacingTop=-1;spacingLeft=3;spacingRight=3;rotatable=0;labelPosition=right;points=[];portConstraint=eastwest;" parent="LcRW81NQQqgkX1LeB4Ay-4" vertex="1">
          <mxGeometry y="52" width="210" height="8" as="geometry" />
        </mxCell>
        <mxCell id="LcRW81NQQqgkX1LeB4Ay-7" value="~ getPurpose(): Purpose&#xa;~ getActionType(): ActionType&#xa;~ getCondition(): BiPredicate&#xa;        &lt;Space, Space&gt;&#xa;~ getForceDestination(): BiFunction&#xa;        &lt;Space, Space, Space&gt;&#xa;~ getBuildLevel(): Level&#xa;&#xa;&#xa;" style="text;strokeColor=none;fillColor=none;align=left;verticalAlign=top;spacingLeft=4;spacingRight=4;overflow=hidden;rotatable=0;points=[[0,0.5],[1,0.5]];portConstraint=eastwest;" parent="LcRW81NQQqgkX1LeB4Ay-4" vertex="1">
          <mxGeometry y="60" width="210" height="110" as="geometry" />
        </mxCell>
        <mxCell id="LcRW81NQQqgkX1LeB4Ay-13" value="&lt;p style=&quot;margin: 0px ; margin-top: 4px ; text-align: center&quot;&gt;&lt;i&gt;&amp;lt;&amp;lt;enumeration&amp;gt;&amp;gt;&lt;/i&gt;&lt;br&gt;&lt;b&gt;Purpose&lt;/b&gt;&lt;/p&gt;&lt;hr size=&quot;1&quot;&gt;&lt;p style=&quot;margin: 0px ; margin-left: 4px&quot;&gt;VALIDATION&lt;/p&gt;&lt;p style=&quot;margin: 0px ; margin-left: 4px&quot;&gt;GENERATION&lt;br&gt;&lt;/p&gt;" style="verticalAlign=top;align=left;overflow=fill;fontSize=12;fontFamily=Helvetica;html=1;" parent="LcRW81NQQqgkX1LeB4Ay-57" vertex="1">
          <mxGeometry x="461" y="932" width="150" height="92" as="geometry" />
        </mxCell>
        <mxCell id="F_CIxczFa_6I44uATnzT-1" value="&lt;p style=&quot;margin: 0px ; margin-top: 4px ; text-align: center&quot;&gt;&lt;i&gt;&amp;lt;&amp;lt;enumeration&amp;gt;&amp;gt;&lt;/i&gt;&lt;br&gt;&lt;b&gt;Decision&lt;/b&gt;&lt;/p&gt;&lt;hr size=&quot;1&quot;&gt;&lt;p style=&quot;margin: 0px ; margin-left: 4px&quot;&gt;GRANT&lt;br&gt;&lt;/p&gt;&lt;p style=&quot;margin: 0px ; margin-left: 4px&quot;&gt;DENY&lt;br&gt;&lt;/p&gt;" style="verticalAlign=top;align=left;overflow=fill;fontSize=12;fontFamily=Helvetica;html=1;" parent="LcRW81NQQqgkX1LeB4Ay-57" vertex="1">
          <mxGeometry x="251" y="932" width="150" height="92" as="geometry" />
        </mxCell>
        <mxCell id="F_CIxczFa_6I44uATnzT-7" value="&lt;p style=&quot;margin: 0px ; margin-top: 4px ; text-align: center&quot;&gt;&lt;b&gt;ValidationContainer&lt;/b&gt;&lt;/p&gt;&lt;p style=&quot;margin: 0px ; margin-top: 4px ; text-align: center&quot;&gt;&lt;i&gt;{package-visible}&lt;/i&gt;&lt;br&gt;&lt;/p&gt;&lt;hr size=&quot;1&quot;&gt;&lt;p style=&quot;margin: 0px ; margin-left: 4px&quot;&gt;- currentSpace: Space&lt;br&gt;&lt;/p&gt;&lt;p style=&quot;margin: 0px ; margin-left: 4px&quot;&gt;- allSpaces: List&amp;lt;Space&amp;gt;&lt;br&gt;&lt;/p&gt;&lt;p style=&quot;margin: 0px ; margin-left: 4px&quot;&gt;- superList: List&amp;lt;List&amp;lt;Space&amp;gt;&amp;gt;&lt;br&gt;&lt;/p&gt;&lt;p style=&quot;margin: 0px ; margin-left: 4px&quot;&gt;- forces: Map&amp;lt;Space, Space&amp;gt;&lt;/p&gt;&lt;hr size=&quot;1&quot;&gt;&lt;p style=&quot;margin: 0px ; margin-left: 4px&quot;&gt;+ getCurrentSpace(): Space&lt;br&gt;&lt;/p&gt;&lt;p style=&quot;margin: 0px ; margin-left: 4px&quot;&gt;+ getAllSpaces(): List&amp;lt;Space&amp;gt;&lt;br&gt;&lt;/p&gt;&lt;p style=&quot;margin: 0px ; margin-left: 4px&quot;&gt;+ validateSpace(Space, ActionType, Decision, Space, Level):&lt;/p&gt;&lt;p style=&quot;margin: 0px ; margin-left: 4px&quot;&gt;&amp;nbsp;&amp;nbsp;&amp;nbsp;&amp;nbsp;&amp;nbsp;&amp;nbsp;&amp;nbsp; void&lt;/p&gt;&lt;p style=&quot;margin: 0px ; margin-left: 4px&quot;&gt;+ getMovableSpaces(): List&amp;lt;Space&amp;gt;&lt;br&gt;&lt;/p&gt;&lt;p style=&quot;margin: 0px ; margin-left: 4px&quot;&gt;+ getBuildableSpaces(): Map&amp;lt;Level, List&amp;lt;Space&amp;gt;&amp;gt;&lt;br&gt;&lt;/p&gt;&lt;p style=&quot;margin: 0px ; margin-left: 4px&quot;&gt;+ getForces(): Map&amp;lt;Space, Space&amp;gt;&lt;/p&gt;&lt;p style=&quot;margin: 0px ; margin-left: 4px&quot;&gt;+ allSpacesValidated(): boolean&lt;/p&gt;&lt;p style=&quot;margin: 0px ; margin-left: 4px&quot;&gt;- getSuperListIndex(ActionType, Decision, Level): int&lt;br&gt;&lt;/p&gt;" style="verticalAlign=top;align=left;overflow=fill;fontSize=12;fontFamily=Helvetica;html=1;" parent="LcRW81NQQqgkX1LeB4Ay-57" vertex="1">
          <mxGeometry x="53" y="532" width="350" height="268" as="geometry" />
        </mxCell>
        <mxCell id="F_CIxczFa_6I44uATnzT-8" value="Use" style="endArrow=open;endSize=12;dashed=1;html=1;exitX=0.5;exitY=1;exitDx=0;exitDy=0;entryX=0.5;entryY=0;entryDx=0;entryDy=0;edgeStyle=orthogonalEdgeStyle;" parent="LcRW81NQQqgkX1LeB4Ay-57" source="F0vZ-oMPGt8kP6uusFCu-25" target="F_CIxczFa_6I44uATnzT-7" edge="1">
          <mxGeometry width="160" relative="1" as="geometry">
            <mxPoint x="731" y="342" as="sourcePoint" />
            <mxPoint x="891" y="342" as="targetPoint" />
          </mxGeometry>
        </mxCell>
        <mxCell id="LcRW81NQQqgkX1LeB4Ay-55" value="handler" style="text;align=center;fontStyle=1;verticalAlign=middle;spacingLeft=3;spacingRight=3;strokeColor=none;rotatable=0;points=[[0,0.5],[1,0.5]];portConstraint=eastwest;" parent="LcRW81NQQqgkX1LeB4Ay-57" vertex="1">
          <mxGeometry x="3" y="-302" width="80" height="23.75747224594364" as="geometry" />
        </mxCell>
        <mxCell id="JXoQaFI1vnqZG35daFhx-1" value="&lt;p style=&quot;margin: 0px ; margin-top: 4px ; text-align: center&quot;&gt;&lt;b&gt;RequestHandlerCreator&lt;/b&gt;&lt;br&gt;&lt;/p&gt;&lt;hr size=&quot;1&quot;&gt;&lt;p style=&quot;margin: 0px ; margin-left: 4px&quot;&gt;- &lt;u&gt;godRules: Map&amp;lt;String, List&amp;lt;Rule&amp;gt;&amp;gt;&lt;/u&gt;&lt;/p&gt;&lt;p style=&quot;margin: 0px ; margin-left: 4px&quot;&gt;- &lt;u&gt;standardRules: List&amp;lt;Rule&amp;gt;&lt;/u&gt;&lt;br&gt;&lt;/p&gt;&lt;hr size=&quot;1&quot;&gt;&lt;p style=&quot;margin: 0px ; margin-left: 4px&quot;&gt;+ RequestHandlerCreator(String god) {constructor}&lt;br&gt;&lt;/p&gt;&lt;p style=&quot;margin: 0px ; margin-left: 4px&quot;&gt;+ createHandler(): RequestHandler&lt;/p&gt;&lt;p style=&quot;margin: 0px ; margin-left: 4px&quot;&gt;- getRulesFor(String god): List&amp;lt;Rule&amp;gt;&lt;/p&gt;&lt;p style=&quot;margin: 0px ; margin-left: 4px&quot;&gt;- getStandardRules(): List&amp;lt;Rule&amp;gt;&lt;/p&gt;&lt;p style=&quot;margin: 0px ; margin-left: 4px&quot;&gt;- initRulesFor(String god): void&lt;/p&gt;&lt;p style=&quot;margin: 0px ; margin-left: 4px&quot;&gt;- initStandardRules(): void&lt;br&gt;&lt;/p&gt;" style="verticalAlign=top;align=left;overflow=fill;fontSize=12;fontFamily=Helvetica;html=1;" vertex="1" parent="LcRW81NQQqgkX1LeB4Ay-57">
          <mxGeometry x="68.5" y="-158" width="319" height="168" as="geometry" />
        </mxCell>
        <mxCell id="LcRW81NQQqgkX1LeB4Ay-43" style="endArrow=block;endSize=16;endFill=0;html=1;fontFamily=Helvetica;fontSize=11;fontColor=#000000;align=center;strokeColor=#000000;entryX=0.5;entryY=1;entryDx=0;entryDy=0;" parent="LcRW81NQQqgkX1LeB4Ay-57" target="LcRW81NQQqgkX1LeB4Ay-41" edge="1">
          <mxGeometry relative="1" as="geometry">
            <mxPoint x="326.00000000000045" y="540" as="targetPoint" />
            <mxPoint x="766" y="502" as="sourcePoint" />
          </mxGeometry>
        </mxCell>
        <mxCell id="LcRW81NQQqgkX1LeB4Ay-15" style="endArrow=open;endFill=1;endSize=12;html=1;fontFamily=Helvetica;fontSize=11;fontColor=#000000;align=center;strokeColor=#000000;edgeStyle=orthogonalEdgeStyle;exitX=0.007;exitY=0.362;exitDx=0;exitDy=0;entryX=0.25;entryY=0;entryDx=0;entryDy=0;exitPerimeter=0;" parent="LcRW81NQQqgkX1LeB4Ay-57" source="LcRW81NQQqgkX1LeB4Ay-7" target="LcRW81NQQqgkX1LeB4Ay-13" edge="1">
          <mxGeometry relative="1" as="geometry">
            <mxPoint x="231" y="877.04" as="sourcePoint" />
            <mxPoint x="581" y="762" as="targetPoint" />
            <Array as="points">
              <mxPoint x="499" y="882" />
            </Array>
          </mxGeometry>
        </mxCell>
        <mxCell id="F_CIxczFa_6I44uATnzT-2" style="edgeStyle=orthogonalEdgeStyle;rounded=1;orthogonalLoop=1;jettySize=auto;html=1;entryX=0.25;entryY=0;entryDx=0;entryDy=0;endFill=1;endArrow=open;endSize=12;" parent="LcRW81NQQqgkX1LeB4Ay-57" source="LcRW81NQQqgkX1LeB4Ay-4" target="F_CIxczFa_6I44uATnzT-1" edge="1">
          <mxGeometry relative="1" as="geometry">
            <Array as="points">
              <mxPoint x="289" y="867" />
            </Array>
          </mxGeometry>
        </mxCell>
        <mxCell id="LcRW81NQQqgkX1LeB4Ay-47" style="endArrow=open;html=1;endSize=12;startArrow=diamondThin;startSize=16;startFill=0;edgeStyle=orthogonalEdgeStyle;align=center;verticalAlign=bottom;fontFamily=Helvetica;fontSize=11;fontColor=#000000;strokeColor=#000000;exitX=0.002;exitY=0.143;exitDx=0;exitDy=0;exitPerimeter=0;" parent="LcRW81NQQqgkX1LeB4Ay-57" target="LcRW81NQQqgkX1LeB4Ay-4" edge="1" source="LcRW81NQQqgkX1LeB4Ay-3">
          <mxGeometry relative="1" as="geometry">
            <Array as="points">
              <mxPoint x="591" y="594" />
              <mxPoint x="591" y="731" />
              <mxPoint x="786" y="731" />
            </Array>
            <mxPoint x="183" y="642" as="sourcePoint" />
          </mxGeometry>
        </mxCell>
        <mxCell id="LcRW81NQQqgkX1LeB4Ay-14" value="&lt;p style=&quot;margin: 0px ; margin-top: 4px ; text-align: center&quot;&gt;&lt;i&gt;&amp;lt;&amp;lt;enumeration&amp;gt;&amp;gt;&lt;/i&gt;&lt;br&gt;&lt;b&gt;ActionType&lt;/b&gt;&lt;/p&gt;&lt;hr size=&quot;1&quot;&gt;&lt;p style=&quot;margin: 0px ; margin-left: 4px&quot;&gt;MOVE&lt;/p&gt;&lt;p style=&quot;margin: 0px ; margin-left: 4px&quot;&gt;BUILD&lt;/p&gt;&lt;p style=&quot;margin: 0px ; margin-left: 4px&quot;&gt;MYSELF ?&lt;br&gt;&lt;/p&gt;&lt;p style=&quot;margin: 0px ; margin-left: 4px&quot;&gt;OPPONENTS ?&lt;br&gt;&lt;/p&gt;" style="verticalAlign=top;align=left;overflow=fill;fontSize=12;fontFamily=Helvetica;html=1;" parent="LcRW81NQQqgkX1LeB4Ay-57" vertex="1">
          <mxGeometry x="41" y="932" width="150" height="114" as="geometry" />
        </mxCell>
        <mxCell id="LcRW81NQQqgkX1LeB4Ay-16" style="endArrow=open;endFill=1;endSize=12;html=1;fontFamily=Helvetica;fontSize=11;fontColor=#000000;align=center;strokeColor=#000000;edgeStyle=orthogonalEdgeStyle;entryX=0.75;entryY=0;entryDx=0;entryDy=0;" parent="LcRW81NQQqgkX1LeB4Ay-57" source="LcRW81NQQqgkX1LeB4Ay-7" edge="1" target="LcRW81NQQqgkX1LeB4Ay-14">
          <mxGeometry relative="1" as="geometry">
            <mxPoint x="361" y="943" as="targetPoint" />
            <Array as="points">
              <mxPoint x="153" y="852" />
            </Array>
          </mxGeometry>
        </mxCell>
        <mxCell id="LcRW81NQQqgkX1LeB4Ay-44" style="endArrow=open;html=1;endSize=12;startArrow=diamondThin;startSize=16;startFill=0;edgeStyle=orthogonalEdgeStyle;align=center;verticalAlign=bottom;fontFamily=Helvetica;fontSize=11;fontColor=#000000;strokeColor=#000000;exitX=1.01;exitY=0.226;exitDx=0;exitDy=0;exitPerimeter=0;" parent="LcRW81NQQqgkX1LeB4Ay-17" target="LcRW81NQQqgkX1LeB4Ay-18" edge="1" source="GLF211CV2YBHSNNz2mQ8-17">
          <mxGeometry relative="1" as="geometry">
            <mxPoint x="252" y="538" as="sourcePoint" />
            <Array as="points">
              <mxPoint x="281" y="567" />
              <mxPoint x="281" y="392" />
            </Array>
          </mxGeometry>
        </mxCell>
        <mxCell id="GLF211CV2YBHSNNz2mQ8-16" value="Player" style="swimlane;fontStyle=1;align=center;verticalAlign=top;childLayout=stackLayout;horizontal=1;startSize=26;horizontalStack=0;resizeParent=1;resizeParentMax=0;resizeLast=0;collapsible=1;marginBottom=0;" parent="LcRW81NQQqgkX1LeB4Ay-17" vertex="1">
          <mxGeometry x="49" y="522" width="200" height="250" as="geometry" />
        </mxCell>
        <mxCell id="GLF211CV2YBHSNNz2mQ8-17" value="- String nickname&#xa;- God god&#xa;- boolean hasWon&#xa;- List&lt;Worker&gt; workerList&#xa;- Color workerColor" style="text;strokeColor=none;fillColor=none;align=left;verticalAlign=top;spacingLeft=4;spacingRight=4;overflow=hidden;rotatable=0;points=[[0,0.5],[1,0.5]];portConstraint=eastwest;" parent="GLF211CV2YBHSNNz2mQ8-16" vertex="1">
          <mxGeometry y="26" width="200" height="84" as="geometry" />
        </mxCell>
        <mxCell id="GLF211CV2YBHSNNz2mQ8-18" value="" style="line;strokeWidth=1;fillColor=none;align=left;verticalAlign=middle;spacingTop=-1;spacingLeft=3;spacingRight=3;rotatable=0;labelPosition=right;points=[];portConstraint=eastwest;" parent="GLF211CV2YBHSNNz2mQ8-16" vertex="1">
          <mxGeometry y="110" width="200" height="8" as="geometry" />
        </mxCell>
        <mxCell id="GLF211CV2YBHSNNz2mQ8-19" value="+ setGod(God g) : void&#xa;+ getGod() : God&#xa;+ getWorker(int n) : Worker&#xa;+ getWorkerList() : List&lt;Worker&gt;&#xa;+ getNickname() : String&#xa;+ setWorkerColor(Color c) : void&#xa;+ win() : void&#xa;+ getWorkerColor() : Color" style="text;strokeColor=none;fillColor=none;align=left;verticalAlign=top;spacingLeft=4;spacingRight=4;overflow=hidden;rotatable=0;points=[[0,0.5],[1,0.5]];portConstraint=eastwest;" parent="GLF211CV2YBHSNNz2mQ8-16" vertex="1">
          <mxGeometry y="118" width="200" height="132" as="geometry" />
        </mxCell>
        <mxCell id="GLF211CV2YBHSNNz2mQ8-22" value="Space" style="swimlane;fontStyle=1;align=center;verticalAlign=top;childLayout=stackLayout;horizontal=1;startSize=26;horizontalStack=0;resizeParent=1;resizeParentMax=0;resizeLast=0;collapsible=1;marginBottom=0;" parent="LcRW81NQQqgkX1LeB4Ay-17" vertex="1">
          <mxGeometry x="1551" y="1000" width="160" height="160" as="geometry" />
        </mxCell>
        <mxCell id="GLF211CV2YBHSNNz2mQ8-23" value="- boolean occupied&#xa;- Level height" style="text;strokeColor=none;fillColor=none;align=left;verticalAlign=top;spacingLeft=4;spacingRight=4;overflow=hidden;rotatable=0;points=[[0,0.5],[1,0.5]];portConstraint=eastwest;" parent="GLF211CV2YBHSNNz2mQ8-22" vertex="1">
          <mxGeometry y="26" width="160" height="44" as="geometry" />
        </mxCell>
        <mxCell id="GLF211CV2YBHSNNz2mQ8-24" value="" style="line;strokeWidth=1;fillColor=none;align=left;verticalAlign=middle;spacingTop=-1;spacingLeft=3;spacingRight=3;rotatable=0;labelPosition=right;points=[];portConstraint=eastwest;" parent="GLF211CV2YBHSNNz2mQ8-22" vertex="1">
          <mxGeometry y="70" width="160" height="8" as="geometry" />
        </mxCell>
        <mxCell id="GLF211CV2YBHSNNz2mQ8-25" value="+ setOccupied() : void&#xa;+ setUnoccupied() : void&#xa;+ isOccupied() : boolean&#xa;+ getHeight() : Level&#xa;+ levelUp() : void" style="text;strokeColor=none;fillColor=none;align=left;verticalAlign=top;spacingLeft=4;spacingRight=4;overflow=hidden;rotatable=0;points=[[0,0.5],[1,0.5]];portConstraint=eastwest;" parent="GLF211CV2YBHSNNz2mQ8-22" vertex="1">
          <mxGeometry y="78" width="160" height="82" as="geometry" />
        </mxCell>
        <mxCell id="GLF211CV2YBHSNNz2mQ8-10" value="Coord" style="swimlane;fontStyle=1;align=center;verticalAlign=top;childLayout=stackLayout;horizontal=1;startSize=26;horizontalStack=0;resizeParent=1;resizeParentMax=0;resizeLast=0;collapsible=1;marginBottom=0;" parent="LcRW81NQQqgkX1LeB4Ay-17" vertex="1">
          <mxGeometry x="848" y="1457" width="260" height="140" as="geometry" />
        </mxCell>
        <mxCell id="GLF211CV2YBHSNNz2mQ8-11" value="- int x&#xa;- int y" style="text;strokeColor=none;fillColor=none;align=left;verticalAlign=top;spacingLeft=4;spacingRight=4;overflow=hidden;rotatable=0;points=[[0,0.5],[1,0.5]];portConstraint=eastwest;" parent="GLF211CV2YBHSNNz2mQ8-10" vertex="1">
          <mxGeometry y="26" width="260" height="44" as="geometry" />
        </mxCell>
        <mxCell id="GLF211CV2YBHSNNz2mQ8-12" value="" style="line;strokeWidth=1;fillColor=none;align=left;verticalAlign=middle;spacingTop=-1;spacingLeft=3;spacingRight=3;rotatable=0;labelPosition=right;points=[];portConstraint=eastwest;" parent="GLF211CV2YBHSNNz2mQ8-10" vertex="1">
          <mxGeometry y="70" width="260" height="8" as="geometry" />
        </mxCell>
        <mxCell id="GLF211CV2YBHSNNz2mQ8-13" value="+ validCoord(Coord c) : boolean&#xa;+isNear(Coord c) : boolean&#xa;+ convertStringToCoord(String input) : Coord" style="text;strokeColor=none;fillColor=none;align=left;verticalAlign=top;spacingLeft=4;spacingRight=4;overflow=hidden;rotatable=0;points=[[0,0.5],[1,0.5]];portConstraint=eastwest;" parent="GLF211CV2YBHSNNz2mQ8-10" vertex="1">
          <mxGeometry y="78" width="260" height="62" as="geometry" />
        </mxCell>
        <mxCell id="GLF211CV2YBHSNNz2mQ8-29" value="Worker" style="swimlane;fontStyle=1;align=center;verticalAlign=top;childLayout=stackLayout;horizontal=1;startSize=26;horizontalStack=0;resizeParent=1;resizeParentMax=0;resizeLast=0;collapsible=1;marginBottom=0;" parent="LcRW81NQQqgkX1LeB4Ay-17" vertex="1">
          <mxGeometry x="581" y="1452" width="200" height="150" as="geometry" />
        </mxCell>
        <mxCell id="GLF211CV2YBHSNNz2mQ8-30" value="- Color color&#xa;- Coord position&#xa;- Player player" style="text;strokeColor=none;fillColor=none;align=left;verticalAlign=top;spacingLeft=4;spacingRight=4;overflow=hidden;rotatable=0;points=[[0,0.5],[1,0.5]];portConstraint=eastwest;" parent="GLF211CV2YBHSNNz2mQ8-29" vertex="1">
          <mxGeometry y="26" width="200" height="64" as="geometry" />
        </mxCell>
        <mxCell id="GLF211CV2YBHSNNz2mQ8-31" value="" style="line;strokeWidth=1;fillColor=none;align=left;verticalAlign=middle;spacingTop=-1;spacingLeft=3;spacingRight=3;rotatable=0;labelPosition=right;points=[];portConstraint=eastwest;" parent="GLF211CV2YBHSNNz2mQ8-29" vertex="1">
          <mxGeometry y="90" width="200" height="8" as="geometry" />
        </mxCell>
        <mxCell id="GLF211CV2YBHSNNz2mQ8-32" value="+ setPosition(Coord newPos) : void&#xa;+ getPosition() : Coord&#xa;+ setColor(Color c) : void" style="text;strokeColor=none;fillColor=none;align=left;verticalAlign=top;spacingLeft=4;spacingRight=4;overflow=hidden;rotatable=0;points=[[0,0.5],[1,0.5]];portConstraint=eastwest;" parent="GLF211CV2YBHSNNz2mQ8-29" vertex="1">
          <mxGeometry y="98" width="200" height="52" as="geometry" />
        </mxCell>
        <mxCell id="GLF211CV2YBHSNNz2mQ8-6" value="&lt;&lt;enumeration&gt;&gt;&#xa;Color" style="swimlane;fontStyle=1;childLayout=stackLayout;horizontal=1;startSize=35;fillColor=none;horizontalStack=0;resizeParent=1;resizeParentMax=0;resizeLast=0;collapsible=1;marginBottom=0;" parent="LcRW81NQQqgkX1LeB4Ay-17" vertex="1">
          <mxGeometry x="31" y="1372" width="140" height="90" as="geometry" />
        </mxCell>
        <mxCell id="GLF211CV2YBHSNNz2mQ8-9" value=" BLUE&#xa; RED&#xa; YELLOW" style="text;strokeColor=none;fillColor=none;align=left;verticalAlign=top;spacingLeft=4;spacingRight=4;overflow=hidden;rotatable=0;points=[[0,0.5],[1,0.5]];portConstraint=eastwest;" parent="GLF211CV2YBHSNNz2mQ8-6" vertex="1">
          <mxGeometry y="35" width="140" height="55" as="geometry" />
        </mxCell>
        <mxCell id="GLF211CV2YBHSNNz2mQ8-37" value="&lt;p style=&quot;margin: 0px ; margin-top: 4px ; text-align: center&quot;&gt;&lt;i&gt;&amp;lt;&amp;lt;Interface&amp;gt;&amp;gt;&lt;/i&gt;&lt;br&gt;&lt;b&gt;God&lt;/b&gt;&lt;/p&gt;&lt;hr size=&quot;1&quot;&gt;&lt;p style=&quot;margin: 0px ; margin-left: 4px&quot;&gt;&lt;br&gt;&lt;/p&gt;&lt;hr size=&quot;1&quot;&gt;&lt;p style=&quot;margin: 0px ; margin-left: 4px&quot;&gt;+ getDescriptio() : String&lt;/p&gt;&lt;p style=&quot;margin: 0px ; margin-left: 4px&quot;&gt;+ applyEffect(Player p) : void&lt;/p&gt;&lt;p style=&quot;margin: 0px ; margin-left: 4px&quot;&gt;+ hasCondition() : boolean&lt;/p&gt;&lt;p style=&quot;margin: 0px ; margin-left: 4px&quot;&gt;+ getName() : String&lt;/p&gt;" style="verticalAlign=top;align=left;overflow=fill;fontSize=12;fontFamily=Helvetica;html=1;" parent="LcRW81NQQqgkX1LeB4Ay-17" vertex="1">
          <mxGeometry x="270" y="1582" width="190" height="140" as="geometry" />
        </mxCell>
        <mxCell id="GLF211CV2YBHSNNz2mQ8-38" style="endArrow=open;endFill=1;endSize=12;html=1;fontFamily=Helvetica;fontSize=11;fontColor=#000000;align=center;strokeColor=#000000;edgeStyle=orthogonalEdgeStyle;exitX=0.796;exitY=1.024;exitDx=0;exitDy=0;exitPerimeter=0;" parent="LcRW81NQQqgkX1LeB4Ay-17" source="GLF211CV2YBHSNNz2mQ8-19" target="GLF211CV2YBHSNNz2mQ8-37" edge="1">
          <mxGeometry relative="1" as="geometry">
            <Array as="points">
              <mxPoint x="208" y="1632" />
            </Array>
          </mxGeometry>
        </mxCell>
        <mxCell id="GLF211CV2YBHSNNz2mQ8-21" style="endArrow=open;endFill=1;endSize=12;html=1;fontFamily=Helvetica;fontSize=11;fontColor=#000000;align=center;strokeColor=#000000;edgeStyle=orthogonalEdgeStyle;entryX=0.5;entryY=0;entryDx=0;entryDy=0;" parent="LcRW81NQQqgkX1LeB4Ay-17" target="GLF211CV2YBHSNNz2mQ8-6" edge="1">
          <mxGeometry relative="1" as="geometry">
            <Array as="points">
              <mxPoint x="101" y="932" />
              <mxPoint x="101" y="932" />
            </Array>
            <mxPoint x="101" y="777" as="sourcePoint" />
          </mxGeometry>
        </mxCell>
        <mxCell id="GLF211CV2YBHSNNz2mQ8-35" style="endArrow=open;endFill=1;endSize=12;html=1;fontFamily=Helvetica;fontSize=11;fontColor=#000000;align=center;strokeColor=#000000;edgeStyle=orthogonalEdgeStyle;exitX=1.03;exitY=0.788;exitDx=0;exitDy=0;exitPerimeter=0;" parent="LcRW81NQQqgkX1LeB4Ay-17" source="GLF211CV2YBHSNNz2mQ8-19" target="GLF211CV2YBHSNNz2mQ8-29" edge="1">
          <mxGeometry relative="1" as="geometry">
            <Array as="points">
              <mxPoint x="329" y="744" />
              <mxPoint x="329" y="1412" />
              <mxPoint x="681" y="1412" />
            </Array>
          </mxGeometry>
        </mxCell>
        <mxCell id="GLF211CV2YBHSNNz2mQ8-34" style="endArrow=open;endFill=1;endSize=12;html=1;fontFamily=Helvetica;fontSize=11;fontColor=#000000;align=center;strokeColor=#000000;edgeStyle=orthogonalEdgeStyle;" parent="LcRW81NQQqgkX1LeB4Ay-17" source="GLF211CV2YBHSNNz2mQ8-29" target="GLF211CV2YBHSNNz2mQ8-10" edge="1">
          <mxGeometry relative="1" as="geometry" />
        </mxCell>
        <mxCell id="GLF211CV2YBHSNNz2mQ8-26" style="endArrow=open;endFill=1;endSize=12;html=1;fontFamily=Helvetica;fontSize=11;fontColor=#000000;align=center;strokeColor=#000000;edgeStyle=orthogonalEdgeStyle;exitX=0.75;exitY=1;exitDx=0;exitDy=0;entryX=1.021;entryY=0.212;entryDx=0;entryDy=0;entryPerimeter=0;" parent="LcRW81NQQqgkX1LeB4Ay-17" source="GLF211CV2YBHSNNz2mQ8-22" target="GLF211CV2YBHSNNz2mQ8-15" edge="1">
          <mxGeometry relative="1" as="geometry">
            <mxPoint x="1294" y="1082" as="sourcePoint" />
            <mxPoint x="1331" y="1701" as="targetPoint" />
          </mxGeometry>
        </mxCell>
        <mxCell id="F_CIxczFa_6I44uATnzT-0" style="endArrow=open;endSize=12;dashed=1;html=1;fontFamily=Helvetica;fontSize=11;fontColor=#000000;align=center;strokeColor=#000000;edgeStyle=orthogonalEdgeStyle;" parent="LcRW81NQQqgkX1LeB4Ay-17" target="GLF211CV2YBHSNNz2mQ8-14" edge="1">
          <mxGeometry relative="1" as="geometry">
            <Array as="points">
              <mxPoint x="1276" y="1192" />
              <mxPoint x="1276" y="1192" />
            </Array>
            <mxPoint x="1276" y="1168" as="sourcePoint" />
          </mxGeometry>
        </mxCell>
        <mxCell id="JXoQaFI1vnqZG35daFhx-3" value="Use" style="edgeLabel;html=1;align=center;verticalAlign=middle;resizable=0;points=[];" vertex="1" connectable="0" parent="F_CIxczFa_6I44uATnzT-0">
          <mxGeometry x="-0.2817" y="-1" relative="1" as="geometry">
            <mxPoint as="offset" />
          </mxGeometry>
        </mxCell>
        <mxCell id="GLF211CV2YBHSNNz2mQ8-14" value="&lt;&lt;enumeration&gt;&gt;&#xa;Level" style="swimlane;fontStyle=1;childLayout=stackLayout;horizontal=1;startSize=35;fillColor=none;horizontalStack=0;resizeParent=1;resizeParentMax=0;resizeLast=0;collapsible=1;marginBottom=0;" parent="LcRW81NQQqgkX1LeB4Ay-17" vertex="1">
          <mxGeometry x="1221" y="1662" width="140" height="120" as="geometry" />
        </mxCell>
        <mxCell id="GLF211CV2YBHSNNz2mQ8-15" value="GROUND&#xa;LVL1&#xa;LVL2&#xa;LVL3&#xa;DOME" style="text;strokeColor=none;fillColor=none;align=left;verticalAlign=top;spacingLeft=4;spacingRight=4;overflow=hidden;rotatable=0;points=[[0,0.5],[1,0.5]];portConstraint=eastwest;" parent="GLF211CV2YBHSNNz2mQ8-14" vertex="1">
          <mxGeometry y="35" width="140" height="85" as="geometry" />
        </mxCell>
        <mxCell id="-60NsE4o0A_aWf5wCk37-0" value="" style="shape=folder;fontStyle=1;spacingTop=10;tabWidth=64;tabHeight=16;tabPosition=left;html=1;labelPosition=center;verticalLabelPosition=top;align=center;verticalAlign=bottom;" parent="WIyWlLk6GJQsqaUBKTNV-1" vertex="1">
          <mxGeometry x="68" y="-410" width="960" height="520" as="geometry" />
        </mxCell>
        <mxCell id="-60NsE4o0A_aWf5wCk37-2" value="" style="shape=folder;fontStyle=1;spacingTop=10;tabWidth=51;tabHeight=16;tabPosition=left;html=1;" parent="WIyWlLk6GJQsqaUBKTNV-1" vertex="1">
          <mxGeometry x="68" y="140" width="960" height="490" as="geometry" />
        </mxCell>
        <mxCell id="-60NsE4o0A_aWf5wCk37-3" value="Controller" style="text;html=1;strokeColor=none;fillColor=none;align=center;verticalAlign=middle;whiteSpace=wrap;rounded=0;fontStyle=1" parent="WIyWlLk6GJQsqaUBKTNV-1" vertex="1">
          <mxGeometry x="70" y="-407" width="60" height="10" as="geometry" />
        </mxCell>
        <mxCell id="-60NsE4o0A_aWf5wCk37-8" value="&lt;p style=&quot;margin: 0px ; margin-top: 4px ; text-align: center&quot;&gt;&lt;span style=&quot;background-color: rgb(255 , 255 , 255)&quot;&gt;&lt;i&gt;&amp;lt;&amp;lt;Interface&amp;gt;&amp;gt;&lt;/i&gt;&lt;br&gt;&lt;/span&gt;&lt;/p&gt;&lt;p align=&quot;center&quot;&gt;&lt;b style=&quot;background-color: rgb(255 , 255 , 255)&quot;&gt;PlayerViewEventListener&lt;/b&gt;&lt;/p&gt;&lt;hr size=&quot;1&quot;&gt;&lt;p&gt;&lt;/p&gt;&lt;p&gt;&lt;/p&gt;&lt;hr size=&quot;1&quot;&gt;&lt;p style=&quot;margin: 0px ; margin-left: 4px&quot;&gt;&lt;span style=&quot;background-color: rgb(255 , 255 , 255)&quot;&gt;+&amp;nbsp;onBuildChosen(EventSource source, Coord position)&amp;nbsp;: void&lt;/span&gt;&lt;/p&gt;&lt;p style=&quot;margin: 0px ; margin-left: 4px&quot;&gt;&lt;span style=&quot;background-color: rgb(255 , 255 , 255)&quot;&gt;+&amp;nbsp;onColorChosen(EventSource source, Color color) : void&lt;/span&gt;&lt;/p&gt;&lt;p style=&quot;margin: 0px ; margin-left: 4px&quot;&gt;&lt;span style=&quot;background-color: rgb(255 , 255 , 255)&quot;&gt;+ onMoveChosen&lt;/span&gt;&lt;span style=&quot;background-color: rgb(255 , 255 , 255)&quot;&gt;(EventSource source&lt;/span&gt;&lt;span style=&quot;background-color: rgb(255 , 255 , 255)&quot;&gt;, &lt;/span&gt;&lt;span style=&quot;background-color: rgb(255 , 255 , 255)&quot;&gt;Coord position) : void&lt;/span&gt;&lt;/p&gt;&lt;p style=&quot;margin: 0px ; margin-left: 4px&quot;&gt;&lt;span style=&quot;background-color: rgb(255 , 255 , 255)&quot;&gt;+ onNicknameChosen(EventSource source, String nickname) :&lt;/span&gt;&lt;span style=&quot;background-color: rgb(255 , 255 , 255)&quot;&gt;void&amp;nbsp;&lt;/span&gt;&lt;/p&gt;&lt;p style=&quot;margin: 0px ; margin-left: 4px&quot;&gt;&lt;span style=&quot;background-color: rgb(255 , 255 , 255)&quot;&gt;+ onWorkerChosen(EventSource source, String workerID) :&lt;/span&gt;&lt;span style=&quot;background-color: rgb(255 , 255 , 255)&quot;&gt;&amp;nbsp;void&amp;nbsp;&lt;/span&gt;&lt;/p&gt;&lt;p style=&quot;margin: 0px ; margin-left: 4px&quot;&gt;&lt;span style=&quot;background-color: rgb(255 , 255 , 255)&quot;&gt;+ onWorkerInitialized(EventSource source, int x, int y) :&amp;nbsp;&lt;/span&gt;&lt;span style=&quot;background-color: rgb(255 , 255 , 255)&quot;&gt;void&amp;nbsp;&lt;/span&gt;&lt;/p&gt;&lt;p style=&quot;margin: 0px ; margin-left: 4px&quot;&gt;&lt;span style=&quot;background-color: rgb(255 , 255 , 255)&quot;&gt;+ onGodChosen(EventSource source, String god) : void&lt;/span&gt;&lt;/p&gt;" style="verticalAlign=top;align=left;overflow=fill;fontSize=12;fontFamily=Helvetica;html=1;" parent="WIyWlLk6GJQsqaUBKTNV-1" vertex="1">
          <mxGeometry x="88" y="-380" width="440" height="180" as="geometry" />
        </mxCell>
        <mxCell id="-60NsE4o0A_aWf5wCk37-13" style="endArrow=block;dashed=1;endFill=0;endSize=12;html=1;fontFamily=Helvetica;fontSize=11;fontColor=#000000;align=center;strokeColor=#000000;edgeStyle=orthogonalEdgeStyle;" parent="WIyWlLk6GJQsqaUBKTNV-1" source="-60NsE4o0A_aWf5wCk37-9" target="-60NsE4o0A_aWf5wCk37-8" edge="1">
          <mxGeometry relative="1" as="geometry">
            <Array as="points">
              <mxPoint x="778" y="-120" />
              <mxPoint x="308" y="-120" />
            </Array>
          </mxGeometry>
        </mxCell>
        <mxCell id="-60NsE4o0A_aWf5wCk37-19" style="endArrow=block;dashed=1;endFill=0;endSize=12;html=1;fontFamily=Helvetica;fontSize=11;fontColor=#000000;align=center;strokeColor=#000000;edgeStyle=orthogonalEdgeStyle;" parent="WIyWlLk6GJQsqaUBKTNV-1" source="-60NsE4o0A_aWf5wCk37-9" target="-60NsE4o0A_aWf5wCk37-18" edge="1">
          <mxGeometry relative="1" as="geometry">
            <Array as="points">
              <mxPoint x="798" y="-110" />
              <mxPoint x="798" y="-110" />
            </Array>
          </mxGeometry>
        </mxCell>
        <mxCell id="-60NsE4o0A_aWf5wCk37-18" value="&lt;p style=&quot;margin: 0px ; margin-top: 4px ; text-align: center&quot;&gt;&lt;i&gt;&amp;lt;&amp;lt;Interface&amp;gt;&amp;gt;&lt;/i&gt;&lt;br&gt;&lt;b&gt;ChallengerViewEventListener&lt;/b&gt;&lt;/p&gt;&lt;hr size=&quot;1&quot;&gt;&lt;p style=&quot;margin: 0px ; margin-left: 4px&quot;&gt;&lt;br&gt;&lt;/p&gt;&lt;hr size=&quot;1&quot;&gt;&lt;p style=&quot;margin: 0px ; margin-left: 4px&quot;&gt;+ onGodsChosen(EventSource source, List&amp;lt;String&amp;gt; gods) : void&lt;br&gt;&lt;/p&gt;&lt;p style=&quot;margin: 0px ; margin-left: 4px&quot;&gt;+ onStartPlayerChosen(EventSource source, String startPlayerNickname) : void&lt;br&gt;&lt;/p&gt;&lt;p style=&quot;margin: 0px ; margin-left: 4px&quot;&gt;+ onNumberOfPlayerChosen(EventSource source, int n) : void&lt;/p&gt;&lt;p style=&quot;margin: 0px ; margin-left: 4px&quot;&gt;&lt;/p&gt;" style="verticalAlign=top;align=left;overflow=fill;fontSize=12;fontFamily=Helvetica;html=1;" parent="WIyWlLk6GJQsqaUBKTNV-1" vertex="1">
          <mxGeometry x="568" y="-380" width="450" height="120" as="geometry" />
        </mxCell>
        <mxCell id="zC6MC3gjq1DRT-YWUbPT-0" style="endArrow=open;endFill=1;endSize=12;html=1;fontFamily=Helvetica;fontSize=11;fontColor=#000000;align=center;strokeColor=#000000;edgeStyle=orthogonalEdgeStyle;" parent="WIyWlLk6GJQsqaUBKTNV-1" source="-60NsE4o0A_aWf5wCk37-9" target="GLF211CV2YBHSNNz2mQ8-41" edge="1">
          <mxGeometry relative="1" as="geometry">
            <Array as="points">
              <mxPoint x="738" y="40" />
              <mxPoint x="588" y="40" />
              <mxPoint x="588" y="370" />
              <mxPoint x="258" y="370" />
            </Array>
          </mxGeometry>
        </mxCell>
        <mxCell id="zC6MC3gjq1DRT-YWUbPT-1" style="endArrow=open;endFill=1;endSize=12;html=1;fontFamily=Helvetica;fontSize=11;fontColor=#000000;align=center;strokeColor=#000000;edgeStyle=orthogonalEdgeStyle;" parent="WIyWlLk6GJQsqaUBKTNV-1" source="-60NsE4o0A_aWf5wCk37-9" target="GLF211CV2YBHSNNz2mQ8-46" edge="1">
          <mxGeometry relative="1" as="geometry">
            <Array as="points">
              <mxPoint x="808" y="80" />
              <mxPoint x="618" y="80" />
            </Array>
          </mxGeometry>
        </mxCell>
        <mxCell id="GLF211CV2YBHSNNz2mQ8-0" style="edgeStyle=orthogonalEdgeStyle;rounded=0;orthogonalLoop=1;jettySize=auto;html=1;" parent="WIyWlLk6GJQsqaUBKTNV-1" source="-60NsE4o0A_aWf5wCk37-12" target="-60NsE4o0A_aWf5wCk37-27" edge="1">
          <mxGeometry relative="1" as="geometry" />
        </mxCell>
        <mxCell id="GLF211CV2YBHSNNz2mQ8-39" value="View" style="text;align=center;fontStyle=1;verticalAlign=middle;spacingLeft=3;spacingRight=3;strokeColor=none;rotatable=0;points=[[0,0.5],[1,0.5]];portConstraint=eastwest;" parent="WIyWlLk6GJQsqaUBKTNV-1" vertex="1">
          <mxGeometry x="50" y="135" width="80" height="26" as="geometry" />
        </mxCell>
        <mxCell id="GLF211CV2YBHSNNz2mQ8-40" value="&lt;p style=&quot;margin: 0px ; margin-top: 4px ; text-align: center&quot;&gt;&lt;i&gt;&amp;lt;&amp;lt;Interface&amp;gt;&amp;gt;&lt;/i&gt;&lt;br&gt;&lt;b&gt;ModelEventListener&lt;/b&gt;&lt;/p&gt;&lt;hr size=&quot;1&quot;&gt;&lt;p style=&quot;margin: 0px ; margin-left: 4px&quot;&gt;&lt;br&gt;&lt;/p&gt;&lt;hr size=&quot;1&quot;&gt;&lt;p style=&quot;margin: 0px ; margin-left: 4px&quot;&gt;+ onAllPlayerArrived() : void&lt;/p&gt;&lt;p style=&quot;margin: 0px ; margin-left: 4px&quot;&gt;+ onBoardChanged() : void&lt;/p&gt;&lt;p style=&quot;margin: 0px ; margin-left: 4px&quot;&gt;+ onGameReady() : void&lt;/p&gt;&lt;p style=&quot;margin: 0px ; margin-left: 4px&quot;&gt;+ onGodsChosen() : void&lt;/p&gt;&lt;p style=&quot;margin: 0px ; margin-left: 4px&quot;&gt;+ onPlayerAdded(String nickname) : void&lt;/p&gt;&lt;p style=&quot;margin: 0px ; margin-left: 4px&quot;&gt;+ onMyTurn(List&amp;lt;Worker&amp;gt; selectableWorker) : void&lt;/p&gt;&lt;p style=&quot;margin: 0px ; margin-left: 4px&quot;&gt;+ onMyAction(List&amp;lt;Coord&amp;gt; movableSpaces, List&amp;lt;Coord&amp;gt; buildableSpaces) : void&lt;/p&gt;" style="verticalAlign=top;align=left;overflow=fill;fontSize=12;fontFamily=Helvetica;html=1;" parent="WIyWlLk6GJQsqaUBKTNV-1" vertex="1">
          <mxGeometry x="113" y="170" width="455" height="180" as="geometry" />
        </mxCell>
        <mxCell id="GLF211CV2YBHSNNz2mQ8-45" style="endArrow=block;dashed=1;endFill=0;endSize=12;html=1;fontFamily=Helvetica;fontSize=11;fontColor=#000000;align=center;strokeColor=#000000;edgeStyle=orthogonalEdgeStyle;" parent="WIyWlLk6GJQsqaUBKTNV-1" source="GLF211CV2YBHSNNz2mQ8-41" edge="1">
          <mxGeometry relative="1" as="geometry">
            <mxPoint x="208" y="350" as="targetPoint" />
          </mxGeometry>
        </mxCell>
        <mxCell id="zC6MC3gjq1DRT-YWUbPT-2" style="edgeStyle=orthogonalEdgeStyle;rounded=0;orthogonalLoop=1;jettySize=auto;html=1;" parent="WIyWlLk6GJQsqaUBKTNV-1" source="GLF211CV2YBHSNNz2mQ8-41" target="-60NsE4o0A_aWf5wCk37-24" edge="1">
          <mxGeometry relative="1" as="geometry">
            <Array as="points">
              <mxPoint x="208" y="650" />
              <mxPoint x="1048" y="650" />
              <mxPoint x="1048" y="-360" />
              <mxPoint x="1557" y="-360" />
            </Array>
          </mxGeometry>
        </mxCell>
        <mxCell id="GLF211CV2YBHSNNz2mQ8-50" style="endArrow=block;dashed=1;endFill=0;endSize=12;html=1;fontFamily=Helvetica;fontSize=11;fontColor=#000000;align=center;strokeColor=#000000;edgeStyle=orthogonalEdgeStyle;" parent="WIyWlLk6GJQsqaUBKTNV-1" source="GLF211CV2YBHSNNz2mQ8-46" target="GLF211CV2YBHSNNz2mQ8-40" edge="1">
          <mxGeometry relative="1" as="geometry">
            <Array as="points">
              <mxPoint x="528" y="400" />
              <mxPoint x="208" y="400" />
            </Array>
          </mxGeometry>
        </mxCell>
        <mxCell id="GLF211CV2YBHSNNz2mQ8-51" style="edgeStyle=orthogonalEdgeStyle;rounded=0;orthogonalLoop=1;jettySize=auto;html=1;" parent="WIyWlLk6GJQsqaUBKTNV-1" source="GLF211CV2YBHSNNz2mQ8-46" target="GLF211CV2YBHSNNz2mQ8-41" edge="1">
          <mxGeometry relative="1" as="geometry" />
        </mxCell>
        <mxCell id="zC6MC3gjq1DRT-YWUbPT-3" style="edgeStyle=orthogonalEdgeStyle;rounded=0;orthogonalLoop=1;jettySize=auto;html=1;" parent="WIyWlLk6GJQsqaUBKTNV-1" source="GLF211CV2YBHSNNz2mQ8-46" target="-60NsE4o0A_aWf5wCk37-24" edge="1">
          <mxGeometry relative="1" as="geometry">
            <Array as="points">
              <mxPoint x="528" y="650" />
              <mxPoint x="1048" y="650" />
              <mxPoint x="1048" y="-400" />
              <mxPoint x="1538" y="-400" />
            </Array>
          </mxGeometry>
        </mxCell>
        <mxCell id="GLF211CV2YBHSNNz2mQ8-52" value="In questo package andranno aggiunte le classi dedicate&lt;br&gt;alla connessione" style="shape=note;whiteSpace=wrap;html=1;size=14;verticalAlign=top;align=left;spacingTop=-6;" parent="WIyWlLk6GJQsqaUBKTNV-1" vertex="1">
          <mxGeometry x="678" y="170" width="330" height="40" as="geometry" />
        </mxCell>
        <mxCell id="GiokLJy7mmmhCRoW84lE-5" value="1" style="endArrow=open;html=1;endSize=12;startArrow=diamondThin;startSize=14;startFill=0;edgeStyle=orthogonalEdgeStyle;align=left;verticalAlign=bottom;exitX=-0.009;exitY=0.24;exitDx=0;exitDy=0;exitPerimeter=0;" parent="WIyWlLk6GJQsqaUBKTNV-1" edge="1">
          <mxGeometry x="0.9205" y="24" relative="1" as="geometry">
            <mxPoint x="688.1100000000001" y="-29.760000000000105" as="sourcePoint" />
            <mxPoint x="478" y="-30" as="targetPoint" />
            <Array as="points">
              <mxPoint x="498" y="-30" />
            </Array>
            <mxPoint as="offset" />
          </mxGeometry>
        </mxCell>
        <mxCell id="-60NsE4o0A_aWf5wCk37-9" value="RealController" style="swimlane;fontStyle=1;align=center;verticalAlign=top;childLayout=stackLayout;horizontal=1;startSize=26;horizontalStack=0;resizeParent=1;resizeParentMax=0;resizeLast=0;collapsible=1;marginBottom=0;" parent="WIyWlLk6GJQsqaUBKTNV-1" vertex="1">
          <mxGeometry x="688" y="-70" width="210" height="60" as="geometry" />
        </mxCell>
        <mxCell id="-60NsE4o0A_aWf5wCk37-11" value="" style="line;strokeWidth=1;fillColor=none;align=left;verticalAlign=middle;spacingTop=-1;spacingLeft=3;spacingRight=3;rotatable=0;labelPosition=right;points=[];portConstraint=eastwest;" parent="-60NsE4o0A_aWf5wCk37-9" vertex="1">
          <mxGeometry y="26" width="210" height="8" as="geometry" />
        </mxCell>
        <mxCell id="-60NsE4o0A_aWf5wCk37-12" value="+ RealController(GameModel model) " style="text;strokeColor=none;fillColor=none;align=left;verticalAlign=top;spacingLeft=4;spacingRight=4;overflow=hidden;rotatable=0;points=[[0,0.5],[1,0.5]];portConstraint=eastwest;" parent="-60NsE4o0A_aWf5wCk37-9" vertex="1">
          <mxGeometry y="34" width="210" height="26" as="geometry" />
        </mxCell>
        <mxCell id="-60NsE4o0A_aWf5wCk37-14" value="Setup" style="swimlane;fontStyle=1;align=center;verticalAlign=top;childLayout=stackLayout;horizontal=1;startSize=26;horizontalStack=0;resizeParent=1;resizeParentMax=0;resizeLast=0;collapsible=1;marginBottom=0;" parent="WIyWlLk6GJQsqaUBKTNV-1" vertex="1">
          <mxGeometry x="178" y="-98" width="300" height="150" as="geometry" />
        </mxCell>
        <mxCell id="-60NsE4o0A_aWf5wCk37-16" value="" style="line;strokeWidth=1;fillColor=none;align=left;verticalAlign=middle;spacingTop=-1;spacingLeft=3;spacingRight=3;rotatable=0;labelPosition=right;points=[];portConstraint=eastwest;" parent="-60NsE4o0A_aWf5wCk37-14" vertex="1">
          <mxGeometry y="26" width="300" height="8" as="geometry" />
        </mxCell>
        <mxCell id="-60NsE4o0A_aWf5wCk37-17" value="+ Setup(GameModel model)&#xa;+ setNumPlayer(int numPlayers) : void&#xa;+ addNewPlayer(Player p) : void&#xa;+ setPlayerColor(Player p, Color c) : void&#xa;+ setGods(List&lt;God&gt; gods) : void&#xa;+ setStartPlayer(Player p) : void&#xa;+ assignGodToPlayer(Player p, God g) : void&#xa;&#xa;" style="text;strokeColor=none;fillColor=none;align=left;verticalAlign=top;spacingLeft=4;spacingRight=4;overflow=hidden;rotatable=0;points=[[0,0.5],[1,0.5]];portConstraint=eastwest;" parent="-60NsE4o0A_aWf5wCk37-14" vertex="1">
          <mxGeometry y="34" width="300" height="116" as="geometry" />
        </mxCell>
        <mxCell id="GLF211CV2YBHSNNz2mQ8-41" value="PlayerView" style="swimlane;fontStyle=1;align=center;verticalAlign=top;childLayout=stackLayout;horizontal=1;startSize=26;horizontalStack=0;resizeParent=1;resizeParentMax=0;resizeLast=0;collapsible=1;marginBottom=0;" parent="WIyWlLk6GJQsqaUBKTNV-1" vertex="1">
          <mxGeometry x="103" y="430" width="210" height="180" as="geometry" />
        </mxCell>
        <mxCell id="GLF211CV2YBHSNNz2mQ8-42" value="- Scanner s&#xa;- PrintStream outputStream&#xa;- String nickname&#xa;- PlayerViewEventListener listener&#xa;- boolean setupDone" style="text;strokeColor=none;fillColor=none;align=left;verticalAlign=top;spacingLeft=4;spacingRight=4;overflow=hidden;rotatable=0;points=[[0,0.5],[1,0.5]];portConstraint=eastwest;" parent="GLF211CV2YBHSNNz2mQ8-41" vertex="1">
          <mxGeometry y="26" width="210" height="74" as="geometry" />
        </mxCell>
        <mxCell id="GLF211CV2YBHSNNz2mQ8-43" value="" style="line;strokeWidth=1;fillColor=none;align=left;verticalAlign=middle;spacingTop=-1;spacingLeft=3;spacingRight=3;rotatable=0;labelPosition=right;points=[];portConstraint=eastwest;" parent="GLF211CV2YBHSNNz2mQ8-41" vertex="1">
          <mxGeometry y="100" width="210" height="8" as="geometry" />
        </mxCell>
        <mxCell id="GLF211CV2YBHSNNz2mQ8-44" value="+ readNickname() : void&#xa;+ chooseWorkerToMove() : void&#xa;+ initializeWorkerPosition() : void&#xa;+ choseGod() : void" style="text;strokeColor=none;fillColor=none;align=left;verticalAlign=top;spacingLeft=4;spacingRight=4;overflow=hidden;rotatable=0;points=[[0,0.5],[1,0.5]];portConstraint=eastwest;" parent="GLF211CV2YBHSNNz2mQ8-41" vertex="1">
          <mxGeometry y="108" width="210" height="72" as="geometry" />
        </mxCell>
        <mxCell id="GLF211CV2YBHSNNz2mQ8-46" value="ChallengerView" style="swimlane;fontStyle=1;align=center;verticalAlign=top;childLayout=stackLayout;horizontal=1;startSize=26;horizontalStack=0;resizeParent=1;resizeParentMax=0;resizeLast=0;collapsible=1;marginBottom=0;" parent="WIyWlLk6GJQsqaUBKTNV-1" vertex="1">
          <mxGeometry x="428" y="440" width="200" height="160" as="geometry" />
        </mxCell>
        <mxCell id="GLF211CV2YBHSNNz2mQ8-47" value="- Scanner s&#xa;- PrintStream outputStream&#xa;- String nickname&#xa;- PlayerViewEventListener listener&#xa;- boolean setupDone" style="text;strokeColor=none;fillColor=none;align=left;verticalAlign=top;spacingLeft=4;spacingRight=4;overflow=hidden;rotatable=0;points=[[0,0.5],[1,0.5]];portConstraint=eastwest;" parent="GLF211CV2YBHSNNz2mQ8-46" vertex="1">
          <mxGeometry y="26" width="200" height="74" as="geometry" />
        </mxCell>
        <mxCell id="GLF211CV2YBHSNNz2mQ8-48" value="" style="line;strokeWidth=1;fillColor=none;align=left;verticalAlign=middle;spacingTop=-1;spacingLeft=3;spacingRight=3;rotatable=0;labelPosition=right;points=[];portConstraint=eastwest;" parent="GLF211CV2YBHSNNz2mQ8-46" vertex="1">
          <mxGeometry y="100" width="200" height="8" as="geometry" />
        </mxCell>
        <mxCell id="GLF211CV2YBHSNNz2mQ8-49" value="+ chooseNumberOfPlayers() : void&#xa;+ chooseStartPlayer() : void&#xa;+ chooseGods() : void&#xa;" style="text;strokeColor=none;fillColor=none;align=left;verticalAlign=top;spacingLeft=4;spacingRight=4;overflow=hidden;rotatable=0;points=[[0,0.5],[1,0.5]];portConstraint=eastwest;" parent="GLF211CV2YBHSNNz2mQ8-46" vertex="1">
          <mxGeometry y="108" width="200" height="52" as="geometry" />
        </mxCell>
        <mxCell id="AprItg8UIBm6mnvNGxpH-40" style="endArrow=open;endFill=1;endSize=12;html=1;fontFamily=Helvetica;fontSize=11;fontColor=#000000;align=center;strokeColor=#000000;edgeStyle=orthogonalEdgeStyle;exitX=0;exitY=0.5;exitDx=0;exitDy=0;" parent="WIyWlLk6GJQsqaUBKTNV-1" target="-60NsE4o0A_aWf5wCk37-24" edge="1" source="AprItg8UIBm6mnvNGxpH-37">
          <mxGeometry relative="1" as="geometry">
            <mxPoint x="2175" y="-1250" as="sourcePoint" />
            <Array as="points">
              <mxPoint x="1530" y="-1442" />
            </Array>
          </mxGeometry>
        </mxCell>
        <mxCell id="-60NsE4o0A_aWf5wCk37-23" value="Model" style="text;align=center;fontStyle=1;verticalAlign=middle;spacingLeft=3;spacingRight=3;strokeColor=none;rotatable=0;points=[[0,0.5],[1,0.5]];portConstraint=eastwest;" parent="WIyWlLk6GJQsqaUBKTNV-1" vertex="1">
          <mxGeometry x="1394" y="-1587" width="75.83333333333334" height="36.380597014925364" as="geometry" />
        </mxCell>
        <mxCell id="AprItg8UIBm6mnvNGxpH-37" value="&lt;p style=&quot;margin: 0px ; margin-top: 4px ; text-align: center&quot;&gt;&lt;i&gt;{abstract}&lt;/i&gt;&lt;br&gt;&lt;i&gt;&lt;b&gt;ModelState&lt;/b&gt;&lt;/i&gt;&lt;/p&gt;&lt;hr size=&quot;1&quot;&gt;&amp;nbsp;- model: GameModel&lt;br&gt;&lt;hr size=&quot;1&quot;&gt;&lt;p style=&quot;margin: 0px ; margin-left: 4px&quot;&gt;+ nextStep(): void &lt;i&gt;{abstract}&lt;/i&gt;&lt;br&gt;&lt;/p&gt;" style="verticalAlign=top;align=left;overflow=fill;fontSize=12;fontFamily=Helvetica;html=1;" parent="WIyWlLk6GJQsqaUBKTNV-1" vertex="1">
          <mxGeometry x="2177" y="-1501" width="194" height="119" as="geometry" />
        </mxCell>
        <mxCell id="AprItg8UIBm6mnvNGxpH-41" style="endArrow=block;endSize=16;endFill=0;html=1;fontFamily=Helvetica;fontSize=11;fontColor=#000000;align=center;strokeColor=#000000;entryX=0;entryY=1;entryDx=0;entryDy=0;" parent="WIyWlLk6GJQsqaUBKTNV-1" source="AprItg8UIBm6mnvNGxpH-31" target="AprItg8UIBm6mnvNGxpH-37" edge="1">
          <mxGeometry relative="1" as="geometry" />
        </mxCell>
        <mxCell id="AprItg8UIBm6mnvNGxpH-46" style="endArrow=block;endSize=16;endFill=0;html=1;fontFamily=Helvetica;fontSize=11;fontColor=#000000;align=center;strokeColor=#000000;entryX=0.25;entryY=1;entryDx=0;entryDy=0;" parent="WIyWlLk6GJQsqaUBKTNV-1" source="AprItg8UIBm6mnvNGxpH-42" target="AprItg8UIBm6mnvNGxpH-37" edge="1">
          <mxGeometry relative="1" as="geometry">
            <mxPoint x="2582" y="-1382" as="targetPoint" />
          </mxGeometry>
        </mxCell>
        <mxCell id="AprItg8UIBm6mnvNGxpH-56" style="endArrow=block;endSize=16;endFill=0;html=1;fontFamily=Helvetica;fontSize=11;fontColor=#000000;align=center;strokeColor=#000000;entryX=0.5;entryY=1;entryDx=0;entryDy=0;" parent="WIyWlLk6GJQsqaUBKTNV-1" source="AprItg8UIBm6mnvNGxpH-47" target="AprItg8UIBm6mnvNGxpH-37" edge="1">
          <mxGeometry relative="1" as="geometry">
            <mxPoint x="2987" y="-1381" as="targetPoint" />
          </mxGeometry>
        </mxCell>
        <mxCell id="AprItg8UIBm6mnvNGxpH-55" style="endArrow=block;endSize=16;endFill=0;html=1;fontFamily=Helvetica;fontSize=11;fontColor=#000000;align=center;strokeColor=#000000;entryX=0.75;entryY=1;entryDx=0;entryDy=0;" parent="WIyWlLk6GJQsqaUBKTNV-1" source="AprItg8UIBm6mnvNGxpH-51" target="AprItg8UIBm6mnvNGxpH-37" edge="1">
          <mxGeometry relative="1" as="geometry">
            <mxPoint x="3035.5" y="-1381" as="targetPoint" />
          </mxGeometry>
        </mxCell>
        <mxCell id="AprItg8UIBm6mnvNGxpH-61" style="endArrow=block;endSize=16;endFill=0;html=1;fontFamily=Helvetica;fontSize=11;fontColor=#000000;align=center;strokeColor=#000000;entryX=1;entryY=1;entryDx=0;entryDy=0;" parent="WIyWlLk6GJQsqaUBKTNV-1" source="AprItg8UIBm6mnvNGxpH-57" target="AprItg8UIBm6mnvNGxpH-37" edge="1">
          <mxGeometry relative="1" as="geometry">
            <mxPoint x="2630" y="-1381" as="targetPoint" />
          </mxGeometry>
        </mxCell>
        <mxCell id="AprItg8UIBm6mnvNGxpH-62" style="endArrow=open;html=1;endSize=12;startArrow=diamondThin;startSize=19;startFill=0;edgeStyle=orthogonalEdgeStyle;align=center;verticalAlign=bottom;fontFamily=Helvetica;fontSize=11;fontColor=#000000;strokeColor=#000000;rounded=1;entryX=0;entryY=0.25;entryDx=0;entryDy=0;exitX=0.25;exitY=0;exitDx=0;exitDy=0;" parent="WIyWlLk6GJQsqaUBKTNV-1" source="-60NsE4o0A_aWf5wCk37-24" target="AprItg8UIBm6mnvNGxpH-37" edge="1">
          <mxGeometry relative="1" as="geometry" />
        </mxCell>
        <mxCell id="AprItg8UIBm6mnvNGxpH-57" value="PlayerTurnState" style="swimlane;fontStyle=1;align=center;verticalAlign=top;childLayout=stackLayout;horizontal=1;startSize=26;horizontalStack=0;resizeParent=1;resizeParentMax=0;resizeLast=0;collapsible=1;marginBottom=0;" parent="WIyWlLk6GJQsqaUBKTNV-1" vertex="1">
          <mxGeometry x="2788.5" y="-1269" width="200" height="90" as="geometry" />
        </mxCell>
        <mxCell id="AprItg8UIBm6mnvNGxpH-58" value=" " style="text;strokeColor=none;fillColor=none;align=left;verticalAlign=top;spacingLeft=4;spacingRight=4;overflow=hidden;rotatable=0;points=[[0,0.5],[1,0.5]];portConstraint=eastwest;" parent="AprItg8UIBm6mnvNGxpH-57" vertex="1">
          <mxGeometry y="26" width="200" height="26" as="geometry" />
        </mxCell>
        <mxCell id="AprItg8UIBm6mnvNGxpH-59" value="" style="line;strokeWidth=1;fillColor=none;align=left;verticalAlign=middle;spacingTop=-1;spacingLeft=3;spacingRight=3;rotatable=0;labelPosition=right;points=[];portConstraint=eastwest;" parent="AprItg8UIBm6mnvNGxpH-57" vertex="1">
          <mxGeometry y="52" width="200" height="8" as="geometry" />
        </mxCell>
        <mxCell id="AprItg8UIBm6mnvNGxpH-60" value="+ nextStep(): void" style="text;strokeColor=none;fillColor=none;align=left;verticalAlign=top;spacingLeft=4;spacingRight=4;overflow=hidden;rotatable=0;points=[[0,0.5],[1,0.5]];portConstraint=eastwest;" parent="AprItg8UIBm6mnvNGxpH-57" vertex="1">
          <mxGeometry y="60" width="200" height="30" as="geometry" />
        </mxCell>
        <mxCell id="AprItg8UIBm6mnvNGxpH-31" value="WaitingForPlayersState" style="swimlane;fontStyle=1;align=center;verticalAlign=top;childLayout=stackLayout;horizontal=1;startSize=26;horizontalStack=0;resizeParent=1;resizeParentMax=0;resizeLast=0;collapsible=1;marginBottom=0;" parent="WIyWlLk6GJQsqaUBKTNV-1" vertex="1">
          <mxGeometry x="1560" y="-1270" width="200" height="90" as="geometry" />
        </mxCell>
        <mxCell id="AprItg8UIBm6mnvNGxpH-32" value=" " style="text;strokeColor=none;fillColor=none;align=left;verticalAlign=top;spacingLeft=4;spacingRight=4;overflow=hidden;rotatable=0;points=[[0,0.5],[1,0.5]];portConstraint=eastwest;" parent="AprItg8UIBm6mnvNGxpH-31" vertex="1">
          <mxGeometry y="26" width="200" height="26" as="geometry" />
        </mxCell>
        <mxCell id="AprItg8UIBm6mnvNGxpH-33" value="" style="line;strokeWidth=1;fillColor=none;align=left;verticalAlign=middle;spacingTop=-1;spacingLeft=3;spacingRight=3;rotatable=0;labelPosition=right;points=[];portConstraint=eastwest;" parent="AprItg8UIBm6mnvNGxpH-31" vertex="1">
          <mxGeometry y="52" width="200" height="8" as="geometry" />
        </mxCell>
        <mxCell id="AprItg8UIBm6mnvNGxpH-34" value="+ nextStep(): void" style="text;strokeColor=none;fillColor=none;align=left;verticalAlign=top;spacingLeft=4;spacingRight=4;overflow=hidden;rotatable=0;points=[[0,0.5],[1,0.5]];portConstraint=eastwest;" parent="AprItg8UIBm6mnvNGxpH-31" vertex="1">
          <mxGeometry y="60" width="200" height="30" as="geometry" />
        </mxCell>
        <mxCell id="AprItg8UIBm6mnvNGxpH-42" value="GodSelectionState" style="swimlane;fontStyle=1;align=center;verticalAlign=top;childLayout=stackLayout;horizontal=1;startSize=26;horizontalStack=0;resizeParent=1;resizeParentMax=0;resizeLast=0;collapsible=1;marginBottom=0;" parent="WIyWlLk6GJQsqaUBKTNV-1" vertex="1">
          <mxGeometry x="1867.5" y="-1270" width="200" height="90" as="geometry" />
        </mxCell>
        <mxCell id="AprItg8UIBm6mnvNGxpH-43" value=" " style="text;strokeColor=none;fillColor=none;align=left;verticalAlign=top;spacingLeft=4;spacingRight=4;overflow=hidden;rotatable=0;points=[[0,0.5],[1,0.5]];portConstraint=eastwest;" parent="AprItg8UIBm6mnvNGxpH-42" vertex="1">
          <mxGeometry y="26" width="200" height="26" as="geometry" />
        </mxCell>
        <mxCell id="AprItg8UIBm6mnvNGxpH-44" value="" style="line;strokeWidth=1;fillColor=none;align=left;verticalAlign=middle;spacingTop=-1;spacingLeft=3;spacingRight=3;rotatable=0;labelPosition=right;points=[];portConstraint=eastwest;" parent="AprItg8UIBm6mnvNGxpH-42" vertex="1">
          <mxGeometry y="52" width="200" height="8" as="geometry" />
        </mxCell>
        <mxCell id="AprItg8UIBm6mnvNGxpH-45" value="+ nextStep(): void" style="text;strokeColor=none;fillColor=none;align=left;verticalAlign=top;spacingLeft=4;spacingRight=4;overflow=hidden;rotatable=0;points=[[0,0.5],[1,0.5]];portConstraint=eastwest;" parent="AprItg8UIBm6mnvNGxpH-42" vertex="1">
          <mxGeometry y="60" width="200" height="30" as="geometry" />
        </mxCell>
        <mxCell id="AprItg8UIBm6mnvNGxpH-47" value="WorkersInitState" style="swimlane;fontStyle=1;align=center;verticalAlign=top;childLayout=stackLayout;horizontal=1;startSize=26;horizontalStack=0;resizeParent=1;resizeParentMax=0;resizeLast=0;collapsible=1;marginBottom=0;" parent="WIyWlLk6GJQsqaUBKTNV-1" vertex="1">
          <mxGeometry x="2174" y="-1270" width="200" height="90" as="geometry" />
        </mxCell>
        <mxCell id="AprItg8UIBm6mnvNGxpH-48" value=" " style="text;strokeColor=none;fillColor=none;align=left;verticalAlign=top;spacingLeft=4;spacingRight=4;overflow=hidden;rotatable=0;points=[[0,0.5],[1,0.5]];portConstraint=eastwest;" parent="AprItg8UIBm6mnvNGxpH-47" vertex="1">
          <mxGeometry y="26" width="200" height="26" as="geometry" />
        </mxCell>
        <mxCell id="AprItg8UIBm6mnvNGxpH-49" value="" style="line;strokeWidth=1;fillColor=none;align=left;verticalAlign=middle;spacingTop=-1;spacingLeft=3;spacingRight=3;rotatable=0;labelPosition=right;points=[];portConstraint=eastwest;" parent="AprItg8UIBm6mnvNGxpH-47" vertex="1">
          <mxGeometry y="52" width="200" height="8" as="geometry" />
        </mxCell>
        <mxCell id="AprItg8UIBm6mnvNGxpH-50" value="+ nextStep(): void" style="text;strokeColor=none;fillColor=none;align=left;verticalAlign=top;spacingLeft=4;spacingRight=4;overflow=hidden;rotatable=0;points=[[0,0.5],[1,0.5]];portConstraint=eastwest;" parent="AprItg8UIBm6mnvNGxpH-47" vertex="1">
          <mxGeometry y="60" width="200" height="30" as="geometry" />
        </mxCell>
        <mxCell id="AprItg8UIBm6mnvNGxpH-51" value="BeginState" style="swimlane;fontStyle=1;align=center;verticalAlign=top;childLayout=stackLayout;horizontal=1;startSize=26;horizontalStack=0;resizeParent=1;resizeParentMax=0;resizeLast=0;collapsible=1;marginBottom=0;" parent="WIyWlLk6GJQsqaUBKTNV-1" vertex="1">
          <mxGeometry x="2481" y="-1270" width="200" height="90" as="geometry" />
        </mxCell>
        <mxCell id="AprItg8UIBm6mnvNGxpH-52" value=" " style="text;strokeColor=none;fillColor=none;align=left;verticalAlign=top;spacingLeft=4;spacingRight=4;overflow=hidden;rotatable=0;points=[[0,0.5],[1,0.5]];portConstraint=eastwest;" parent="AprItg8UIBm6mnvNGxpH-51" vertex="1">
          <mxGeometry y="26" width="200" height="26" as="geometry" />
        </mxCell>
        <mxCell id="AprItg8UIBm6mnvNGxpH-53" value="" style="line;strokeWidth=1;fillColor=none;align=left;verticalAlign=middle;spacingTop=-1;spacingLeft=3;spacingRight=3;rotatable=0;labelPosition=right;points=[];portConstraint=eastwest;" parent="AprItg8UIBm6mnvNGxpH-51" vertex="1">
          <mxGeometry y="52" width="200" height="8" as="geometry" />
        </mxCell>
        <mxCell id="AprItg8UIBm6mnvNGxpH-54" value="+ nextStep(): void" style="text;strokeColor=none;fillColor=none;align=left;verticalAlign=top;spacingLeft=4;spacingRight=4;overflow=hidden;rotatable=0;points=[[0,0.5],[1,0.5]];portConstraint=eastwest;" parent="AprItg8UIBm6mnvNGxpH-51" vertex="1">
          <mxGeometry y="60" width="200" height="30" as="geometry" />
        </mxCell>
        <mxCell id="AprItg8UIBm6mnvNGxpH-64" value="&lt;div&gt;&amp;nbsp;nextStep() {&lt;/div&gt;&lt;div&gt;&amp;nbsp;&amp;nbsp; state.nextStep();&lt;/div&gt;&lt;div&gt;&amp;nbsp;}&lt;br&gt;&lt;/div&gt;" style="shape=note;whiteSpace=wrap;html=1;size=14;verticalAlign=top;align=left;spacingTop=-6;" parent="WIyWlLk6GJQsqaUBKTNV-1" vertex="1">
          <mxGeometry x="1591" y="-1140" width="109" height="58" as="geometry" />
        </mxCell>
        <mxCell id="AprItg8UIBm6mnvNGxpH-65" style="endArrow=none;dashed=1;html=1;fontFamily=Helvetica;fontSize=11;fontColor=#000000;align=center;startFill=0;startSize=19;endFill=0;endSize=16;strokeColor=#000000;edgeStyle=orthogonalEdgeStyle;entryX=0.799;entryY=-0.003;entryDx=0;entryDy=0;entryPerimeter=0;" parent="WIyWlLk6GJQsqaUBKTNV-1" source="AprItg8UIBm6mnvNGxpH-64" target="-60NsE4o0A_aWf5wCk37-24" edge="1">
          <mxGeometry relative="1" as="geometry" />
        </mxCell>
        <mxCell id="GLF211CV2YBHSNNz2mQ8-5" style="edgeStyle=orthogonalEdgeStyle;rounded=0;orthogonalLoop=1;jettySize=auto;html=1;exitX=1.006;exitY=0.172;exitDx=0;exitDy=0;exitPerimeter=0;" parent="WIyWlLk6GJQsqaUBKTNV-1" source="-60NsE4o0A_aWf5wCk37-25" target="GLF211CV2YBHSNNz2mQ8-1" edge="1">
          <mxGeometry relative="1" as="geometry">
            <mxPoint x="1736" y="-980" as="sourcePoint" />
            <Array as="points">
              <mxPoint x="2256" y="-980" />
              <mxPoint x="2256" y="-980" />
            </Array>
          </mxGeometry>
        </mxCell>
        <mxCell id="GLF211CV2YBHSNNz2mQ8-20" style="endArrow=open;endFill=1;endSize=12;html=1;fontFamily=Helvetica;fontSize=11;fontColor=#000000;align=center;strokeColor=#000000;edgeStyle=orthogonalEdgeStyle;" parent="WIyWlLk6GJQsqaUBKTNV-1" source="-60NsE4o0A_aWf5wCk37-24" target="GLF211CV2YBHSNNz2mQ8-16" edge="1">
          <mxGeometry relative="1" as="geometry">
            <Array as="points">
              <mxPoint x="1578" y="-430" />
              <mxPoint x="1578" y="-430" />
            </Array>
          </mxGeometry>
        </mxCell>
        <mxCell id="GLF211CV2YBHSNNz2mQ8-27" style="endArrow=open;html=1;endSize=12;startArrow=diamondThin;startSize=14;startFill=1;edgeStyle=orthogonalEdgeStyle;align=center;verticalAlign=bottom;fontFamily=Helvetica;fontSize=11;fontColor=#000000;strokeColor=#000000;exitX=0.686;exitY=1.029;exitDx=0;exitDy=0;exitPerimeter=0;" parent="WIyWlLk6GJQsqaUBKTNV-1" source="GLF211CV2YBHSNNz2mQ8-4" edge="1">
          <mxGeometry relative="1" as="geometry">
            <Array as="points">
              <mxPoint x="3034" y="168" />
            </Array>
            <mxPoint x="3034" y="168" as="targetPoint" />
          </mxGeometry>
        </mxCell>
        <mxCell id="GLF211CV2YBHSNNz2mQ8-28" value="25" style="text;html=1;align=center;verticalAlign=middle;resizable=0;points=[];labelBackgroundColor=#ffffff;" parent="GLF211CV2YBHSNNz2mQ8-27" vertex="1" connectable="0">
          <mxGeometry x="-0.75" y="-1" relative="1" as="geometry">
            <mxPoint x="-32.8" y="831.48" as="offset" />
          </mxGeometry>
        </mxCell>
        <mxCell id="LcRW81NQQqgkX1LeB4Ay-49" value="1..n" style="text;html=1;align=center;verticalAlign=middle;resizable=0;points=[];labelBackgroundColor=#ffffff;" parent="GLF211CV2YBHSNNz2mQ8-27" vertex="1" connectable="0">
          <mxGeometry x="-0.75" y="-1" relative="1" as="geometry">
            <mxPoint x="-355" y="843.3000000000001" as="offset" />
          </mxGeometry>
        </mxCell>
        <mxCell id="GLF211CV2YBHSNNz2mQ8-36" style="endArrow=open;endFill=1;endSize=12;html=1;fontFamily=Helvetica;fontSize=11;fontColor=#000000;align=center;strokeColor=#000000;edgeStyle=orthogonalEdgeStyle;exitX=0.207;exitY=1.013;exitDx=0;exitDy=0;exitPerimeter=0;entryX=0.75;entryY=0;entryDx=0;entryDy=0;" parent="WIyWlLk6GJQsqaUBKTNV-1" source="GLF211CV2YBHSNNz2mQ8-4" target="GLF211CV2YBHSNNz2mQ8-29" edge="1">
          <mxGeometry relative="1" as="geometry">
            <Array as="points">
              <mxPoint x="2890" y="560" />
              <mxPoint x="2130" y="560" />
            </Array>
          </mxGeometry>
        </mxCell>
        <mxCell id="-60NsE4o0A_aWf5wCk37-24" value="GameModel" style="swimlane;fontStyle=1;align=center;verticalAlign=top;childLayout=stackLayout;horizontal=1;startSize=26;horizontalStack=0;resizeParent=1;resizeParentMax=0;resizeLast=0;collapsible=1;marginBottom=0;" parent="WIyWlLk6GJQsqaUBKTNV-1" vertex="1">
          <mxGeometry x="1430" y="-1012" width="270" height="270" as="geometry" />
        </mxCell>
        <mxCell id="-60NsE4o0A_aWf5wCk37-25" value="- int numPlayers&#xa;- List&lt;Player&gt; queue" style="text;strokeColor=none;fillColor=none;align=left;verticalAlign=top;spacingLeft=4;spacingRight=4;overflow=hidden;rotatable=0;points=[[0,0.5],[1,0.5]];portConstraint=eastwest;" parent="-60NsE4o0A_aWf5wCk37-24" vertex="1">
          <mxGeometry y="26" width="270" height="34" as="geometry" />
        </mxCell>
        <mxCell id="-60NsE4o0A_aWf5wCk37-26" value="" style="line;strokeWidth=1;fillColor=none;align=left;verticalAlign=middle;spacingTop=-1;spacingLeft=3;spacingRight=3;rotatable=0;labelPosition=right;points=[];portConstraint=eastwest;" parent="-60NsE4o0A_aWf5wCk37-24" vertex="1">
          <mxGeometry y="60" width="270" height="8" as="geometry" />
        </mxCell>
        <mxCell id="-60NsE4o0A_aWf5wCk37-27" value="+ addNewPlayer(Player p) : void&#xa;+ Getter/Setter&#xa;+ initializeWorker(Worker w, Coord c) : void&#xa;+ assignGodToPlayer(Player p, God g) : void&#xa;+ setStartPlayer(Player p) : void&#xa;+ allPlayersArrived() : boolean&#xa;+ getPlayerByNickname(String nick) : Player&#xa;+ nextPlayer() : void&#xa;+ getBoardView() : void&#xa;+ getQueueState() : int&#xa;+ requestPlayersNicknames() : List&lt;String&gt;&#xa;+ getAvailableColors(): List&lt;Color&gt;&#xa;+ nextStep(): void&#xa;" style="text;strokeColor=none;fillColor=none;align=left;verticalAlign=top;spacingLeft=4;spacingRight=4;overflow=hidden;rotatable=0;points=[[0,0.5],[1,0.5]];portConstraint=eastwest;" parent="-60NsE4o0A_aWf5wCk37-24" vertex="1">
          <mxGeometry y="68" width="270" height="202" as="geometry" />
        </mxCell>
        <mxCell id="GLF211CV2YBHSNNz2mQ8-1" value="Board" style="swimlane;fontStyle=1;align=center;verticalAlign=top;childLayout=stackLayout;horizontal=1;startSize=26;horizontalStack=0;resizeParent=1;resizeParentMax=0;resizeLast=0;collapsible=1;marginBottom=0;" parent="WIyWlLk6GJQsqaUBKTNV-1" vertex="1">
          <mxGeometry x="2828" y="-1020" width="300" height="190" as="geometry" />
        </mxCell>
        <mxCell id="GLF211CV2YBHSNNz2mQ8-3" value="" style="line;strokeWidth=1;fillColor=none;align=left;verticalAlign=middle;spacingTop=-1;spacingLeft=3;spacingRight=3;rotatable=0;labelPosition=right;points=[];portConstraint=eastwest;" parent="GLF211CV2YBHSNNz2mQ8-1" vertex="1">
          <mxGeometry y="26" width="300" height="8" as="geometry" />
        </mxCell>
        <mxCell id="GLF211CV2YBHSNNz2mQ8-4" value="+ getSpace(Coord c) : Space&#xa;+ addWorker(Worker w) : void&#xa;+ getAllWorkers() : List&lt;Worker&gt;&#xa;+ getWorkerByPosition(Coord pos) : Worker&#xa;+ getUnoccupiedSpaces() : List&lt;Coord&gt;&#xa;+ workerMove(Worker w, Coord newPos) : void&#xa;+ workerBuild(Worker w, Coord buildPos) : void&#xa;+ getMovableSpaceAround(Coord c) : List&lt;Coord&gt;&#xa;+ getBuildableSpaceAround(Coord c) : List&lt;Coord&gt;&#xa;+ initializeWorker(Worker w, Coord pos) : void&#xa;" style="text;strokeColor=none;fillColor=none;align=left;verticalAlign=top;spacingLeft=4;spacingRight=4;overflow=hidden;rotatable=0;points=[[0,0.5],[1,0.5]];portConstraint=eastwest;" parent="GLF211CV2YBHSNNz2mQ8-1" vertex="1">
          <mxGeometry y="34" width="300" height="156" as="geometry" />
        </mxCell>
        <mxCell id="JXoQaFI1vnqZG35daFhx-2" value="Use" style="endArrow=open;endSize=12;dashed=1;html=1;exitX=1.019;exitY=0.75;exitDx=0;exitDy=0;exitPerimeter=0;entryX=0;entryY=0.5;entryDx=0;entryDy=0;edgeStyle=orthogonalEdgeStyle;" edge="1" parent="WIyWlLk6GJQsqaUBKTNV-1" source="-60NsE4o0A_aWf5wCk37-27" target="JXoQaFI1vnqZG35daFhx-1">
          <mxGeometry width="160" relative="1" as="geometry">
            <mxPoint x="1650" y="-620" as="sourcePoint" />
            <mxPoint x="1810" y="-620" as="targetPoint" />
          </mxGeometry>
        </mxCell>
      </root>
    </mxGraphModel>
  </diagram>
</mxfile>
